<mxfile host="app.diagrams.net" agent="Mozilla/5.0 (Linux; Android 10; K) AppleWebKit/537.36 (KHTML, like Gecko) Chrome/134.0.0.0 Mobile Safari/537.36" version="26.1.0">
  <diagram name="Page-1" id="hCh2-L-WzJlBCHf1ATzF">
    <mxGraphModel dx="1563" dy="1197" grid="1" gridSize="10" guides="1" tooltips="1" connect="1" arrows="1" fold="1" page="1" pageScale="1" pageWidth="827" pageHeight="1169" background="none" math="1" shadow="0">
      <root>
        <mxCell id="0" />
        <mxCell id="1" parent="0" />
        <mxCell id="3gT1epxU8pgeMeXcipZ9-1" value="&lt;h1 style=&quot;margin-top: 0px;&quot;&gt;Libreria digitale&lt;/h1&gt;&lt;p&gt;Articolo(titolo,&amp;nbsp;annoPubblicazione, {autori}, editore, pubblicazione(nome, argomento, responsabile), conferenza(luogo, inizio, fine, struttura, responsabile))&lt;/p&gt;&lt;p&gt;Libro(titolo, annoPubblicazione, {autori}, editore, tipologia, categoria*, annoUscita, libreria, modalitaFruizione, collana)&lt;/p&gt;&lt;p&gt;Collana(NumeroLibrI)&lt;/p&gt;&lt;p&gt;Rivista(nome, argomento, responsabile), Conferenza(luogo, inizio, fine, struttura, responsabile)&lt;/p&gt;" style="text;html=1;whiteSpace=wrap;overflow=hidden;rounded=0;fontSize=18;movable=1;resizable=1;rotatable=1;deletable=1;editable=1;locked=0;connectable=1;" parent="1" vertex="1">
          <mxGeometry x="9" y="10" width="810" height="260" as="geometry" />
        </mxCell>
        <mxCell id="ZXgn2BJdAuPuCcgPqNGy-24" value="LIBRO" style="whiteSpace=wrap;html=1;align=center;" vertex="1" parent="1">
          <mxGeometry x="209" y="490" width="80" height="40" as="geometry" />
        </mxCell>
        <mxCell id="ZXgn2BJdAuPuCcgPqNGy-25" value="ARTICOLO" style="whiteSpace=wrap;html=1;align=center;" vertex="1" parent="1">
          <mxGeometry x="920" y="400" width="80" height="40" as="geometry" />
        </mxCell>
        <mxCell id="ZXgn2BJdAuPuCcgPqNGy-26" value="Titolo" style="ellipse;whiteSpace=wrap;html=1;align=center;" vertex="1" parent="1">
          <mxGeometry x="49" y="520" width="80" height="40" as="geometry" />
        </mxCell>
        <mxCell id="ZXgn2BJdAuPuCcgPqNGy-57" value="AnnoPubblicazione" style="ellipse;whiteSpace=wrap;html=1;align=center;" vertex="1" parent="1">
          <mxGeometry x="9" y="620" width="120" height="40" as="geometry" />
        </mxCell>
        <mxCell id="ZXgn2BJdAuPuCcgPqNGy-59" value="Autori" style="ellipse;shape=doubleEllipse;margin=3;whiteSpace=wrap;html=1;align=center;" vertex="1" parent="1">
          <mxGeometry x="29" y="670" width="100" height="40" as="geometry" />
        </mxCell>
        <mxCell id="ZXgn2BJdAuPuCcgPqNGy-60" value="Editore" style="ellipse;whiteSpace=wrap;html=1;align=center;" vertex="1" parent="1">
          <mxGeometry x="49" y="720" width="80" height="40" as="geometry" />
        </mxCell>
        <mxCell id="ZXgn2BJdAuPuCcgPqNGy-61" value="Tipologia" style="ellipse;whiteSpace=wrap;html=1;align=center;" vertex="1" parent="1">
          <mxGeometry x="49" y="370" width="80" height="40" as="geometry" />
        </mxCell>
        <mxCell id="ZXgn2BJdAuPuCcgPqNGy-67" value="Categoria" style="ellipse;whiteSpace=wrap;html=1;align=center;" vertex="1" parent="1">
          <mxGeometry x="49" y="320" width="80" height="40" as="geometry" />
        </mxCell>
        <mxCell id="ZXgn2BJdAuPuCcgPqNGy-68" value="AnnoUscita" style="ellipse;whiteSpace=wrap;html=1;align=center;" vertex="1" parent="1">
          <mxGeometry x="49" y="420" width="80" height="40" as="geometry" />
        </mxCell>
        <mxCell id="ZXgn2BJdAuPuCcgPqNGy-69" value="Libreria" style="ellipse;whiteSpace=wrap;html=1;align=center;" vertex="1" parent="1">
          <mxGeometry x="49" y="470" width="80" height="40" as="geometry" />
        </mxCell>
        <mxCell id="ZXgn2BJdAuPuCcgPqNGy-70" value="ModalitaFruizione" style="ellipse;shape=doubleEllipse;margin=3;whiteSpace=wrap;html=1;align=center;" vertex="1" parent="1">
          <mxGeometry x="19" y="570" width="110" height="40" as="geometry" />
        </mxCell>
        <mxCell id="ZXgn2BJdAuPuCcgPqNGy-71" value="" style="endArrow=none;html=1;rounded=0;fontSize=12;startSize=8;endSize=8;jumpStyle=none;flowAnimation=0;edgeStyle=elbowEdgeStyle;" edge="1" parent="1" source="ZXgn2BJdAuPuCcgPqNGy-67" target="ZXgn2BJdAuPuCcgPqNGy-24">
          <mxGeometry relative="1" as="geometry">
            <mxPoint x="169" y="380" as="sourcePoint" />
            <mxPoint x="329" y="380" as="targetPoint" />
          </mxGeometry>
        </mxCell>
        <mxCell id="ZXgn2BJdAuPuCcgPqNGy-72" value="" style="endArrow=none;html=1;rounded=0;fontSize=12;startSize=8;endSize=8;edgeStyle=elbowEdgeStyle;" edge="1" parent="1" source="ZXgn2BJdAuPuCcgPqNGy-61" target="ZXgn2BJdAuPuCcgPqNGy-24">
          <mxGeometry relative="1" as="geometry">
            <mxPoint x="269" y="410" as="sourcePoint" />
            <mxPoint x="429" y="410" as="targetPoint" />
          </mxGeometry>
        </mxCell>
        <mxCell id="ZXgn2BJdAuPuCcgPqNGy-73" value="" style="endArrow=none;html=1;rounded=0;fontSize=12;startSize=8;endSize=8;edgeStyle=elbowEdgeStyle;" edge="1" parent="1" source="ZXgn2BJdAuPuCcgPqNGy-69" target="ZXgn2BJdAuPuCcgPqNGy-24">
          <mxGeometry relative="1" as="geometry">
            <mxPoint x="209" y="600" as="sourcePoint" />
            <mxPoint x="369" y="600" as="targetPoint" />
          </mxGeometry>
        </mxCell>
        <mxCell id="ZXgn2BJdAuPuCcgPqNGy-74" value="" style="endArrow=none;html=1;rounded=0;fontSize=12;startSize=8;endSize=8;edgeStyle=elbowEdgeStyle;" edge="1" parent="1" source="ZXgn2BJdAuPuCcgPqNGy-68" target="ZXgn2BJdAuPuCcgPqNGy-24">
          <mxGeometry relative="1" as="geometry">
            <mxPoint x="179" y="600" as="sourcePoint" />
            <mxPoint x="339" y="600" as="targetPoint" />
          </mxGeometry>
        </mxCell>
        <mxCell id="ZXgn2BJdAuPuCcgPqNGy-75" value="" style="endArrow=none;html=1;rounded=0;fontSize=12;startSize=8;endSize=8;edgeStyle=elbowEdgeStyle;" edge="1" parent="1" source="ZXgn2BJdAuPuCcgPqNGy-26" target="ZXgn2BJdAuPuCcgPqNGy-24">
          <mxGeometry relative="1" as="geometry">
            <mxPoint x="209" y="620" as="sourcePoint" />
            <mxPoint x="369" y="620" as="targetPoint" />
          </mxGeometry>
        </mxCell>
        <mxCell id="ZXgn2BJdAuPuCcgPqNGy-76" value="" style="endArrow=none;html=1;rounded=0;fontSize=12;startSize=8;endSize=8;edgeStyle=elbowEdgeStyle;" edge="1" parent="1" source="ZXgn2BJdAuPuCcgPqNGy-70" target="ZXgn2BJdAuPuCcgPqNGy-24">
          <mxGeometry relative="1" as="geometry">
            <mxPoint x="199" y="650" as="sourcePoint" />
            <mxPoint x="359" y="650" as="targetPoint" />
          </mxGeometry>
        </mxCell>
        <mxCell id="ZXgn2BJdAuPuCcgPqNGy-77" value="" style="endArrow=none;html=1;rounded=0;fontSize=12;startSize=8;endSize=8;edgeStyle=elbowEdgeStyle;" edge="1" parent="1" source="ZXgn2BJdAuPuCcgPqNGy-57" target="ZXgn2BJdAuPuCcgPqNGy-24">
          <mxGeometry relative="1" as="geometry">
            <mxPoint x="209" y="640" as="sourcePoint" />
            <mxPoint x="369" y="640" as="targetPoint" />
          </mxGeometry>
        </mxCell>
        <mxCell id="ZXgn2BJdAuPuCcgPqNGy-78" value="" style="endArrow=none;html=1;rounded=0;fontSize=12;startSize=8;endSize=8;edgeStyle=elbowEdgeStyle;" edge="1" parent="1" source="ZXgn2BJdAuPuCcgPqNGy-59" target="ZXgn2BJdAuPuCcgPqNGy-24">
          <mxGeometry relative="1" as="geometry">
            <mxPoint x="259" y="650" as="sourcePoint" />
            <mxPoint x="419" y="650" as="targetPoint" />
          </mxGeometry>
        </mxCell>
        <mxCell id="ZXgn2BJdAuPuCcgPqNGy-79" value="" style="endArrow=none;html=1;rounded=0;fontSize=12;startSize=8;endSize=8;edgeStyle=elbowEdgeStyle;" edge="1" parent="1" source="ZXgn2BJdAuPuCcgPqNGy-60" target="ZXgn2BJdAuPuCcgPqNGy-24">
          <mxGeometry relative="1" as="geometry">
            <mxPoint x="219" y="640" as="sourcePoint" />
            <mxPoint x="379" y="640" as="targetPoint" />
          </mxGeometry>
        </mxCell>
        <mxCell id="ZXgn2BJdAuPuCcgPqNGy-80" value="COLLANA" style="whiteSpace=wrap;html=1;align=center;" vertex="1" parent="1">
          <mxGeometry x="569" y="490" width="80" height="40" as="geometry" />
        </mxCell>
        <mxCell id="ZXgn2BJdAuPuCcgPqNGy-81" value="NumeroLibri" style="ellipse;whiteSpace=wrap;html=1;align=center;" vertex="1" parent="1">
          <mxGeometry x="689" y="490" width="80" height="40" as="geometry" />
        </mxCell>
        <mxCell id="ZXgn2BJdAuPuCcgPqNGy-82" value="APPARTIENE_A" style="shape=rhombus;perimeter=rhombusPerimeter;whiteSpace=wrap;html=1;align=center;" vertex="1" parent="1">
          <mxGeometry x="379" y="480" width="120" height="60" as="geometry" />
        </mxCell>
        <mxCell id="ZXgn2BJdAuPuCcgPqNGy-100" value="" style="endArrow=none;html=1;rounded=0;fontSize=12;startSize=8;endSize=8;curved=1;" edge="1" parent="1" source="ZXgn2BJdAuPuCcgPqNGy-24" target="ZXgn2BJdAuPuCcgPqNGy-82">
          <mxGeometry relative="1" as="geometry">
            <mxPoint x="309" y="509.64" as="sourcePoint" />
            <mxPoint x="399.0000000000001" y="509.64" as="targetPoint" />
            <Array as="points">
              <mxPoint x="349" y="509.64" />
            </Array>
          </mxGeometry>
        </mxCell>
        <mxCell id="ZXgn2BJdAuPuCcgPqNGy-101" value="(0,1)&lt;br&gt;Contenuto" style="resizable=0;html=1;whiteSpace=wrap;align=left;verticalAlign=bottom;" connectable="0" vertex="1" parent="ZXgn2BJdAuPuCcgPqNGy-100">
          <mxGeometry x="1" relative="1" as="geometry">
            <mxPoint x="-80" as="offset" />
          </mxGeometry>
        </mxCell>
        <mxCell id="ZXgn2BJdAuPuCcgPqNGy-102" value="" style="endArrow=none;html=1;rounded=0;fontSize=12;startSize=8;endSize=8;curved=1;" edge="1" parent="1" source="ZXgn2BJdAuPuCcgPqNGy-82" target="ZXgn2BJdAuPuCcgPqNGy-80">
          <mxGeometry relative="1" as="geometry">
            <mxPoint x="349" y="630" as="sourcePoint" />
            <mxPoint x="509" y="630" as="targetPoint" />
          </mxGeometry>
        </mxCell>
        <mxCell id="ZXgn2BJdAuPuCcgPqNGy-103" value="(0,N)&lt;br&gt;Contiene" style="resizable=0;html=1;whiteSpace=wrap;align=right;verticalAlign=bottom;" connectable="0" vertex="1" parent="ZXgn2BJdAuPuCcgPqNGy-102">
          <mxGeometry x="1" relative="1" as="geometry">
            <mxPoint x="-10" as="offset" />
          </mxGeometry>
        </mxCell>
        <mxCell id="ZXgn2BJdAuPuCcgPqNGy-105" value="" style="endArrow=none;html=1;rounded=0;fontSize=12;startSize=8;endSize=8;curved=1;" edge="1" parent="1" source="ZXgn2BJdAuPuCcgPqNGy-80" target="ZXgn2BJdAuPuCcgPqNGy-81">
          <mxGeometry relative="1" as="geometry">
            <mxPoint x="469" y="580" as="sourcePoint" />
            <mxPoint x="629" y="580" as="targetPoint" />
          </mxGeometry>
        </mxCell>
        <mxCell id="ZXgn2BJdAuPuCcgPqNGy-106" value="Titolo" style="ellipse;whiteSpace=wrap;html=1;align=center;" vertex="1" parent="1">
          <mxGeometry x="920" y="320" width="80" height="40" as="geometry" />
        </mxCell>
        <mxCell id="ZXgn2BJdAuPuCcgPqNGy-107" value="AnnoPubblicazione" style="ellipse;whiteSpace=wrap;html=1;align=center;" vertex="1" parent="1">
          <mxGeometry x="1100" y="320" width="120" height="40" as="geometry" />
        </mxCell>
        <mxCell id="ZXgn2BJdAuPuCcgPqNGy-108" value="Autori" style="ellipse;shape=doubleEllipse;margin=3;whiteSpace=wrap;html=1;align=center;" vertex="1" parent="1">
          <mxGeometry x="1231" y="320" width="100" height="40" as="geometry" />
        </mxCell>
        <mxCell id="ZXgn2BJdAuPuCcgPqNGy-109" value="Editore" style="ellipse;whiteSpace=wrap;html=1;align=center;" vertex="1" parent="1">
          <mxGeometry x="1010" y="320" width="80" height="40" as="geometry" />
        </mxCell>
        <mxCell id="ZXgn2BJdAuPuCcgPqNGy-111" value="" style="endArrow=none;html=1;rounded=0;fontSize=12;startSize=8;endSize=8;edgeStyle=elbowEdgeStyle;elbow=vertical;" edge="1" parent="1" source="ZXgn2BJdAuPuCcgPqNGy-25" target="ZXgn2BJdAuPuCcgPqNGy-106">
          <mxGeometry relative="1" as="geometry">
            <mxPoint x="870" y="460" as="sourcePoint" />
            <mxPoint x="1030" y="460" as="targetPoint" />
          </mxGeometry>
        </mxCell>
        <mxCell id="ZXgn2BJdAuPuCcgPqNGy-112" value="" style="endArrow=none;html=1;rounded=0;fontSize=12;startSize=8;endSize=8;edgeStyle=elbowEdgeStyle;elbow=vertical;" edge="1" parent="1" source="ZXgn2BJdAuPuCcgPqNGy-25" target="ZXgn2BJdAuPuCcgPqNGy-109">
          <mxGeometry relative="1" as="geometry">
            <mxPoint x="930" y="490" as="sourcePoint" />
            <mxPoint x="1090" y="490" as="targetPoint" />
          </mxGeometry>
        </mxCell>
        <mxCell id="ZXgn2BJdAuPuCcgPqNGy-113" value="" style="endArrow=none;html=1;rounded=0;fontSize=12;startSize=8;endSize=8;edgeStyle=elbowEdgeStyle;elbow=vertical;" edge="1" parent="1" source="ZXgn2BJdAuPuCcgPqNGy-25" target="ZXgn2BJdAuPuCcgPqNGy-107">
          <mxGeometry relative="1" as="geometry">
            <mxPoint x="940" y="440" as="sourcePoint" />
            <mxPoint x="1100" y="440" as="targetPoint" />
          </mxGeometry>
        </mxCell>
        <mxCell id="ZXgn2BJdAuPuCcgPqNGy-114" value="" style="endArrow=none;html=1;rounded=0;fontSize=12;startSize=8;endSize=8;edgeStyle=elbowEdgeStyle;elbow=vertical;" edge="1" parent="1" source="ZXgn2BJdAuPuCcgPqNGy-25" target="ZXgn2BJdAuPuCcgPqNGy-108">
          <mxGeometry relative="1" as="geometry">
            <mxPoint x="990" y="460" as="sourcePoint" />
            <mxPoint x="1150" y="460" as="targetPoint" />
          </mxGeometry>
        </mxCell>
        <mxCell id="ZXgn2BJdAuPuCcgPqNGy-110" value="RIVISTA" style="whiteSpace=wrap;html=1;align=center;" vertex="1" parent="1">
          <mxGeometry x="920" y="640" width="80" height="40" as="geometry" />
        </mxCell>
        <mxCell id="ZXgn2BJdAuPuCcgPqNGy-115" value="CONFERENZA" style="whiteSpace=wrap;html=1;align=center;" vertex="1" parent="1">
          <mxGeometry x="1200" y="640" width="80" height="40" as="geometry" />
        </mxCell>
        <mxCell id="ZXgn2BJdAuPuCcgPqNGy-116" value="Nome" style="ellipse;whiteSpace=wrap;html=1;align=center;" vertex="1" parent="1">
          <mxGeometry x="800" y="640" width="80" height="40" as="geometry" />
        </mxCell>
        <mxCell id="ZXgn2BJdAuPuCcgPqNGy-117" value="Argomento" style="ellipse;whiteSpace=wrap;html=1;align=center;" vertex="1" parent="1">
          <mxGeometry x="800" y="690" width="80" height="40" as="geometry" />
        </mxCell>
        <mxCell id="ZXgn2BJdAuPuCcgPqNGy-118" value="Responsabile" style="ellipse;whiteSpace=wrap;html=1;align=center;" vertex="1" parent="1">
          <mxGeometry x="800" y="740" width="80" height="40" as="geometry" />
        </mxCell>
        <mxCell id="ZXgn2BJdAuPuCcgPqNGy-119" value="Luogo" style="ellipse;whiteSpace=wrap;html=1;align=center;" vertex="1" parent="1">
          <mxGeometry x="1331" y="640" width="80" height="40" as="geometry" />
        </mxCell>
        <mxCell id="ZXgn2BJdAuPuCcgPqNGy-120" value="Argomento" style="ellipse;whiteSpace=wrap;html=1;align=center;" vertex="1" parent="1">
          <mxGeometry x="1331" y="690" width="80" height="40" as="geometry" />
        </mxCell>
        <mxCell id="ZXgn2BJdAuPuCcgPqNGy-121" value="Argomento" style="ellipse;whiteSpace=wrap;html=1;align=center;" vertex="1" parent="1">
          <mxGeometry x="1331" y="740" width="80" height="40" as="geometry" />
        </mxCell>
        <mxCell id="ZXgn2BJdAuPuCcgPqNGy-122" value="Argomento" style="ellipse;whiteSpace=wrap;html=1;align=center;" vertex="1" parent="1">
          <mxGeometry x="1331" y="790" width="80" height="40" as="geometry" />
        </mxCell>
        <mxCell id="ZXgn2BJdAuPuCcgPqNGy-123" value="Argomento" style="ellipse;whiteSpace=wrap;html=1;align=center;" vertex="1" parent="1">
          <mxGeometry x="1331" y="840" width="80" height="40" as="geometry" />
        </mxCell>
        <mxCell id="ZXgn2BJdAuPuCcgPqNGy-124" value="PUBBLICATO_IN" style="shape=rhombus;perimeter=rhombusPerimeter;whiteSpace=wrap;html=1;align=center;" vertex="1" parent="1">
          <mxGeometry x="1040" y="520" width="120" height="60" as="geometry" />
        </mxCell>
        <mxCell id="ZXgn2BJdAuPuCcgPqNGy-125" value="" style="endArrow=none;html=1;rounded=0;fontSize=12;startSize=8;endSize=8;edgeStyle=elbowEdgeStyle;" edge="1" parent="1" source="ZXgn2BJdAuPuCcgPqNGy-116" target="ZXgn2BJdAuPuCcgPqNGy-110">
          <mxGeometry relative="1" as="geometry">
            <mxPoint x="930" y="730" as="sourcePoint" />
            <mxPoint x="1090" y="730" as="targetPoint" />
          </mxGeometry>
        </mxCell>
        <mxCell id="ZXgn2BJdAuPuCcgPqNGy-126" value="" style="endArrow=none;html=1;rounded=0;fontSize=12;startSize=8;endSize=8;edgeStyle=elbowEdgeStyle;" edge="1" parent="1" source="ZXgn2BJdAuPuCcgPqNGy-117" target="ZXgn2BJdAuPuCcgPqNGy-110">
          <mxGeometry relative="1" as="geometry">
            <mxPoint x="830" y="720" as="sourcePoint" />
            <mxPoint x="1090" y="720" as="targetPoint" />
          </mxGeometry>
        </mxCell>
        <mxCell id="ZXgn2BJdAuPuCcgPqNGy-127" value="" style="endArrow=none;html=1;rounded=0;fontSize=12;startSize=8;endSize=8;edgeStyle=elbowEdgeStyle;" edge="1" parent="1" source="ZXgn2BJdAuPuCcgPqNGy-118" target="ZXgn2BJdAuPuCcgPqNGy-110">
          <mxGeometry relative="1" as="geometry">
            <mxPoint x="920" y="740" as="sourcePoint" />
            <mxPoint x="1080" y="740" as="targetPoint" />
          </mxGeometry>
        </mxCell>
        <mxCell id="ZXgn2BJdAuPuCcgPqNGy-128" value="" style="endArrow=none;html=1;rounded=0;fontSize=12;startSize=8;endSize=8;edgeStyle=elbowEdgeStyle;" edge="1" parent="1" source="ZXgn2BJdAuPuCcgPqNGy-115" target="ZXgn2BJdAuPuCcgPqNGy-119">
          <mxGeometry relative="1" as="geometry">
            <mxPoint x="1210" y="770" as="sourcePoint" />
            <mxPoint x="1370" y="770" as="targetPoint" />
          </mxGeometry>
        </mxCell>
        <mxCell id="ZXgn2BJdAuPuCcgPqNGy-129" value="" style="endArrow=none;html=1;rounded=0;fontSize=12;startSize=8;endSize=8;edgeStyle=elbowEdgeStyle;" edge="1" parent="1" source="ZXgn2BJdAuPuCcgPqNGy-115" target="ZXgn2BJdAuPuCcgPqNGy-120">
          <mxGeometry relative="1" as="geometry">
            <mxPoint x="1140" y="760" as="sourcePoint" />
            <mxPoint x="1300" y="760" as="targetPoint" />
          </mxGeometry>
        </mxCell>
        <mxCell id="ZXgn2BJdAuPuCcgPqNGy-130" value="" style="endArrow=none;html=1;rounded=0;fontSize=12;startSize=8;endSize=8;edgeStyle=elbowEdgeStyle;" edge="1" parent="1" source="ZXgn2BJdAuPuCcgPqNGy-115" target="ZXgn2BJdAuPuCcgPqNGy-121">
          <mxGeometry relative="1" as="geometry">
            <mxPoint x="1040" y="750" as="sourcePoint" />
            <mxPoint x="1200" y="750" as="targetPoint" />
          </mxGeometry>
        </mxCell>
        <mxCell id="ZXgn2BJdAuPuCcgPqNGy-131" value="" style="endArrow=none;html=1;rounded=0;fontSize=12;startSize=8;endSize=8;edgeStyle=elbowEdgeStyle;" edge="1" parent="1" source="ZXgn2BJdAuPuCcgPqNGy-115" target="ZXgn2BJdAuPuCcgPqNGy-122">
          <mxGeometry relative="1" as="geometry">
            <mxPoint x="1110" y="770" as="sourcePoint" />
            <mxPoint x="1270" y="770" as="targetPoint" />
          </mxGeometry>
        </mxCell>
        <mxCell id="ZXgn2BJdAuPuCcgPqNGy-132" value="" style="endArrow=none;html=1;rounded=0;fontSize=12;startSize=8;endSize=8;edgeStyle=elbowEdgeStyle;" edge="1" parent="1" source="ZXgn2BJdAuPuCcgPqNGy-115" target="ZXgn2BJdAuPuCcgPqNGy-123">
          <mxGeometry relative="1" as="geometry">
            <mxPoint x="1080" y="780" as="sourcePoint" />
            <mxPoint x="1380" y="860" as="targetPoint" />
          </mxGeometry>
        </mxCell>
        <mxCell id="ZXgn2BJdAuPuCcgPqNGy-135" value="" style="endArrow=none;html=1;rounded=0;fontSize=12;startSize=8;endSize=8;edgeStyle=elbowEdgeStyle;elbow=vertical;" edge="1" parent="1" source="ZXgn2BJdAuPuCcgPqNGy-124" target="ZXgn2BJdAuPuCcgPqNGy-25">
          <mxGeometry relative="1" as="geometry">
            <mxPoint x="870" y="480" as="sourcePoint" />
            <mxPoint x="990" y="460" as="targetPoint" />
          </mxGeometry>
        </mxCell>
        <mxCell id="ZXgn2BJdAuPuCcgPqNGy-136" value="(1,1)" style="resizable=0;html=1;whiteSpace=wrap;align=right;verticalAlign=bottom;" connectable="0" vertex="1" parent="ZXgn2BJdAuPuCcgPqNGy-135">
          <mxGeometry x="1" relative="1" as="geometry">
            <mxPoint x="29" y="20" as="offset" />
          </mxGeometry>
        </mxCell>
        <mxCell id="ZXgn2BJdAuPuCcgPqNGy-137" value="" style="endArrow=none;html=1;rounded=0;fontSize=12;startSize=8;endSize=8;edgeStyle=elbowEdgeStyle;elbow=vertical;" edge="1" parent="1" source="ZXgn2BJdAuPuCcgPqNGy-124" target="ZXgn2BJdAuPuCcgPqNGy-110">
          <mxGeometry relative="1" as="geometry">
            <mxPoint x="1050" y="650" as="sourcePoint" />
            <mxPoint x="1210" y="650" as="targetPoint" />
          </mxGeometry>
        </mxCell>
        <mxCell id="ZXgn2BJdAuPuCcgPqNGy-138" value="(1,1)" style="resizable=0;html=1;whiteSpace=wrap;align=right;verticalAlign=bottom;" connectable="0" vertex="1" parent="ZXgn2BJdAuPuCcgPqNGy-137">
          <mxGeometry x="1" relative="1" as="geometry" />
        </mxCell>
        <mxCell id="ZXgn2BJdAuPuCcgPqNGy-139" value="" style="endArrow=none;html=1;rounded=0;fontSize=12;startSize=8;endSize=8;edgeStyle=elbowEdgeStyle;elbow=vertical;" edge="1" parent="1" source="ZXgn2BJdAuPuCcgPqNGy-124" target="ZXgn2BJdAuPuCcgPqNGy-115">
          <mxGeometry relative="1" as="geometry">
            <mxPoint x="1060" y="650" as="sourcePoint" />
            <mxPoint x="1220" y="650" as="targetPoint" />
          </mxGeometry>
        </mxCell>
        <mxCell id="ZXgn2BJdAuPuCcgPqNGy-140" value="(1,1)" style="resizable=0;html=1;whiteSpace=wrap;align=right;verticalAlign=bottom;" connectable="0" vertex="1" parent="ZXgn2BJdAuPuCcgPqNGy-139">
          <mxGeometry x="1" relative="1" as="geometry" />
        </mxCell>
      </root>
    </mxGraphModel>
  </diagram>
</mxfile>
